<mxfile host="app.diagrams.net" modified="2023-12-29T15:20:58.096Z" agent="Mozilla/5.0 (Windows NT 10.0; Win64; x64) AppleWebKit/537.36 (KHTML, like Gecko) Chrome/120.0.0.0 Safari/537.36" etag="opvk3Pw7I0aaPWrzR_Zr" version="22.1.16" type="device">
  <diagram name="Страница — 1" id="wz8otLtqL1qlWUBza7pT">
    <mxGraphModel dx="2183" dy="1192" grid="0" gridSize="10" guides="1" tooltips="1" connect="1" arrows="1" fold="1" page="1" pageScale="1" pageWidth="827" pageHeight="1169" math="0" shadow="0">
      <root>
        <mxCell id="0" />
        <mxCell id="1" parent="0" />
        <mxCell id="J54ocUBtTwpgo4Hj2ubW-1" value="User" style="shape=umlActor;verticalLabelPosition=bottom;verticalAlign=top;html=1;outlineConnect=0;" vertex="1" parent="1">
          <mxGeometry x="92" y="451" width="30" height="60" as="geometry" />
        </mxCell>
        <mxCell id="J54ocUBtTwpgo4Hj2ubW-93" style="edgeStyle=orthogonalEdgeStyle;rounded=0;orthogonalLoop=1;jettySize=auto;html=1;" edge="1" parent="1" source="J54ocUBtTwpgo4Hj2ubW-15" target="J54ocUBtTwpgo4Hj2ubW-86">
          <mxGeometry relative="1" as="geometry" />
        </mxCell>
        <mxCell id="J54ocUBtTwpgo4Hj2ubW-94" style="edgeStyle=orthogonalEdgeStyle;rounded=0;orthogonalLoop=1;jettySize=auto;html=1;" edge="1" parent="1" source="J54ocUBtTwpgo4Hj2ubW-15" target="J54ocUBtTwpgo4Hj2ubW-85">
          <mxGeometry relative="1" as="geometry" />
        </mxCell>
        <mxCell id="J54ocUBtTwpgo4Hj2ubW-96" style="edgeStyle=orthogonalEdgeStyle;rounded=0;orthogonalLoop=1;jettySize=auto;html=1;" edge="1" parent="1" source="J54ocUBtTwpgo4Hj2ubW-15" target="J54ocUBtTwpgo4Hj2ubW-80">
          <mxGeometry relative="1" as="geometry" />
        </mxCell>
        <mxCell id="J54ocUBtTwpgo4Hj2ubW-97" style="edgeStyle=orthogonalEdgeStyle;rounded=0;orthogonalLoop=1;jettySize=auto;html=1;" edge="1" parent="1" source="J54ocUBtTwpgo4Hj2ubW-15" target="J54ocUBtTwpgo4Hj2ubW-79">
          <mxGeometry relative="1" as="geometry" />
        </mxCell>
        <mxCell id="J54ocUBtTwpgo4Hj2ubW-98" style="edgeStyle=orthogonalEdgeStyle;rounded=0;orthogonalLoop=1;jettySize=auto;html=1;" edge="1" parent="1" source="J54ocUBtTwpgo4Hj2ubW-15" target="J54ocUBtTwpgo4Hj2ubW-19">
          <mxGeometry relative="1" as="geometry" />
        </mxCell>
        <mxCell id="J54ocUBtTwpgo4Hj2ubW-99" style="edgeStyle=orthogonalEdgeStyle;rounded=0;orthogonalLoop=1;jettySize=auto;html=1;" edge="1" parent="1" source="J54ocUBtTwpgo4Hj2ubW-15" target="J54ocUBtTwpgo4Hj2ubW-84">
          <mxGeometry relative="1" as="geometry" />
        </mxCell>
        <mxCell id="J54ocUBtTwpgo4Hj2ubW-15" value="Robot Cleaner" style="verticalLabelPosition=bottom;verticalAlign=top;html=1;shape=mxgraph.basic.donut;dx=25;" vertex="1" parent="1">
          <mxGeometry x="945" y="775" width="100" height="100" as="geometry" />
        </mxCell>
        <mxCell id="J54ocUBtTwpgo4Hj2ubW-17" value="Ручное обновление ПО" style="rounded=1;whiteSpace=wrap;html=1;fillColor=#bac8d3;strokeColor=#23445d;" vertex="1" parent="1">
          <mxGeometry x="176" y="697" width="120" height="60" as="geometry" />
        </mxCell>
        <mxCell id="J54ocUBtTwpgo4Hj2ubW-44" style="edgeStyle=orthogonalEdgeStyle;rounded=0;orthogonalLoop=1;jettySize=auto;html=1;entryX=1;entryY=0.5;entryDx=0;entryDy=0;fillColor=#647687;strokeColor=#314354;" edge="1" parent="1" source="J54ocUBtTwpgo4Hj2ubW-18" target="J54ocUBtTwpgo4Hj2ubW-17">
          <mxGeometry relative="1" as="geometry" />
        </mxCell>
        <mxCell id="J54ocUBtTwpgo4Hj2ubW-45" style="edgeStyle=orthogonalEdgeStyle;rounded=0;orthogonalLoop=1;jettySize=auto;html=1;fillColor=#647687;strokeColor=#314354;" edge="1" parent="1" source="J54ocUBtTwpgo4Hj2ubW-18" target="J54ocUBtTwpgo4Hj2ubW-19">
          <mxGeometry relative="1" as="geometry" />
        </mxCell>
        <mxCell id="J54ocUBtTwpgo4Hj2ubW-18" value="Обновление ПО" style="rounded=1;whiteSpace=wrap;html=1;fillColor=#bac8d3;strokeColor=#23445d;" vertex="1" parent="1">
          <mxGeometry x="333" y="697" width="120" height="60" as="geometry" />
        </mxCell>
        <mxCell id="J54ocUBtTwpgo4Hj2ubW-19" value="Авто обновление &lt;br&gt;ПО" style="rounded=1;whiteSpace=wrap;html=1;fillColor=#bac8d3;strokeColor=#23445d;" vertex="1" parent="1">
          <mxGeometry x="333" y="795" width="120" height="60" as="geometry" />
        </mxCell>
        <mxCell id="J54ocUBtTwpgo4Hj2ubW-28" style="edgeStyle=orthogonalEdgeStyle;rounded=0;orthogonalLoop=1;jettySize=auto;html=1;" edge="1" parent="1" source="J54ocUBtTwpgo4Hj2ubW-20" target="J54ocUBtTwpgo4Hj2ubW-22">
          <mxGeometry relative="1" as="geometry" />
        </mxCell>
        <mxCell id="J54ocUBtTwpgo4Hj2ubW-29" style="edgeStyle=orthogonalEdgeStyle;rounded=0;orthogonalLoop=1;jettySize=auto;html=1;" edge="1" parent="1" source="J54ocUBtTwpgo4Hj2ubW-20" target="J54ocUBtTwpgo4Hj2ubW-24">
          <mxGeometry relative="1" as="geometry" />
        </mxCell>
        <mxCell id="J54ocUBtTwpgo4Hj2ubW-31" style="edgeStyle=orthogonalEdgeStyle;rounded=0;orthogonalLoop=1;jettySize=auto;html=1;" edge="1" parent="1" source="J54ocUBtTwpgo4Hj2ubW-20" target="J54ocUBtTwpgo4Hj2ubW-30">
          <mxGeometry relative="1" as="geometry" />
        </mxCell>
        <mxCell id="J54ocUBtTwpgo4Hj2ubW-20" value="&lt;span style=&quot;color: rgb(0, 0, 0); font-family: Helvetica; font-size: 12px; font-style: normal; font-variant-ligatures: normal; font-variant-caps: normal; font-weight: 400; letter-spacing: normal; orphans: 2; text-align: center; text-indent: 0px; text-transform: none; widows: 2; word-spacing: 0px; -webkit-text-stroke-width: 0px; background-color: rgb(251, 251, 251); text-decoration-thickness: initial; text-decoration-style: initial; text-decoration-color: initial; float: none; display: inline !important;&quot;&gt;Выбор устройства&lt;/span&gt;" style="rounded=1;whiteSpace=wrap;html=1;fillColor=#f8cecc;strokeColor=#b85450;" vertex="1" parent="1">
          <mxGeometry x="203" y="451" width="120" height="60" as="geometry" />
        </mxCell>
        <mxCell id="J54ocUBtTwpgo4Hj2ubW-22" value="&lt;span style=&quot;color: rgb(0, 0, 0); font-family: Helvetica; font-size: 12px; font-style: normal; font-variant-ligatures: normal; font-variant-caps: normal; font-weight: 400; letter-spacing: normal; orphans: 2; text-align: center; text-indent: 0px; text-transform: none; widows: 2; word-spacing: 0px; -webkit-text-stroke-width: 0px; background-color: rgb(251, 251, 251); text-decoration-thickness: initial; text-decoration-style: initial; text-decoration-color: initial; float: none; display: inline !important;&quot;&gt;Добавить устройство&lt;/span&gt;" style="rounded=1;whiteSpace=wrap;html=1;fillColor=#dae8fc;strokeColor=#6c8ebf;" vertex="1" parent="1">
          <mxGeometry x="137" y="570" width="120" height="60" as="geometry" />
        </mxCell>
        <mxCell id="J54ocUBtTwpgo4Hj2ubW-24" value="Удалить&lt;br style=&quot;border-color: var(--border-color);&quot;&gt;устройство" style="rounded=1;whiteSpace=wrap;html=1;fillColor=#dae8fc;strokeColor=#6c8ebf;" vertex="1" parent="1">
          <mxGeometry x="260" y="570" width="120" height="60" as="geometry" />
        </mxCell>
        <mxCell id="J54ocUBtTwpgo4Hj2ubW-27" value="" style="endArrow=classic;html=1;rounded=0;" edge="1" parent="1" source="J54ocUBtTwpgo4Hj2ubW-1" target="J54ocUBtTwpgo4Hj2ubW-20">
          <mxGeometry width="50" height="50" relative="1" as="geometry">
            <mxPoint x="273" y="527" as="sourcePoint" />
            <mxPoint x="323" y="477" as="targetPoint" />
          </mxGeometry>
        </mxCell>
        <mxCell id="J54ocUBtTwpgo4Hj2ubW-36" style="edgeStyle=orthogonalEdgeStyle;rounded=0;orthogonalLoop=1;jettySize=auto;html=1;fillColor=#d5e8d4;strokeColor=#82b366;" edge="1" parent="1" source="J54ocUBtTwpgo4Hj2ubW-30" target="J54ocUBtTwpgo4Hj2ubW-32">
          <mxGeometry relative="1" as="geometry" />
        </mxCell>
        <mxCell id="J54ocUBtTwpgo4Hj2ubW-42" style="edgeStyle=orthogonalEdgeStyle;rounded=0;orthogonalLoop=1;jettySize=auto;html=1;fillColor=#647687;strokeColor=#314354;" edge="1" parent="1" source="J54ocUBtTwpgo4Hj2ubW-30" target="J54ocUBtTwpgo4Hj2ubW-18">
          <mxGeometry relative="1" as="geometry" />
        </mxCell>
        <mxCell id="J54ocUBtTwpgo4Hj2ubW-81" style="edgeStyle=orthogonalEdgeStyle;rounded=0;orthogonalLoop=1;jettySize=auto;html=1;entryX=0.5;entryY=1;entryDx=0;entryDy=0;" edge="1" parent="1" source="J54ocUBtTwpgo4Hj2ubW-30" target="J54ocUBtTwpgo4Hj2ubW-54">
          <mxGeometry relative="1" as="geometry">
            <Array as="points">
              <mxPoint x="500" y="398" />
              <mxPoint x="399" y="398" />
            </Array>
          </mxGeometry>
        </mxCell>
        <mxCell id="J54ocUBtTwpgo4Hj2ubW-83" style="edgeStyle=orthogonalEdgeStyle;rounded=0;orthogonalLoop=1;jettySize=auto;html=1;fillColor=#fff2cc;strokeColor=#d6b656;" edge="1" parent="1" source="J54ocUBtTwpgo4Hj2ubW-30" target="J54ocUBtTwpgo4Hj2ubW-53">
          <mxGeometry relative="1" as="geometry" />
        </mxCell>
        <mxCell id="J54ocUBtTwpgo4Hj2ubW-90" style="edgeStyle=orthogonalEdgeStyle;rounded=0;orthogonalLoop=1;jettySize=auto;html=1;" edge="1" parent="1" source="J54ocUBtTwpgo4Hj2ubW-30" target="J54ocUBtTwpgo4Hj2ubW-73">
          <mxGeometry relative="1" as="geometry">
            <Array as="points">
              <mxPoint x="500" y="398" />
              <mxPoint x="252" y="398" />
            </Array>
          </mxGeometry>
        </mxCell>
        <mxCell id="J54ocUBtTwpgo4Hj2ubW-91" style="edgeStyle=orthogonalEdgeStyle;rounded=0;orthogonalLoop=1;jettySize=auto;html=1;" edge="1" parent="1" source="J54ocUBtTwpgo4Hj2ubW-30" target="J54ocUBtTwpgo4Hj2ubW-88">
          <mxGeometry relative="1" as="geometry">
            <Array as="points">
              <mxPoint x="500" y="398" />
              <mxPoint x="112" y="398" />
            </Array>
          </mxGeometry>
        </mxCell>
        <mxCell id="J54ocUBtTwpgo4Hj2ubW-30" value="Настройки" style="rounded=1;whiteSpace=wrap;html=1;fillColor=#ffe6cc;strokeColor=#d79b00;" vertex="1" parent="1">
          <mxGeometry x="440" y="451" width="120" height="60" as="geometry" />
        </mxCell>
        <mxCell id="J54ocUBtTwpgo4Hj2ubW-75" style="edgeStyle=orthogonalEdgeStyle;rounded=0;orthogonalLoop=1;jettySize=auto;html=1;fillColor=#d5e8d4;strokeColor=#82b366;" edge="1" parent="1" source="J54ocUBtTwpgo4Hj2ubW-32" target="J54ocUBtTwpgo4Hj2ubW-34">
          <mxGeometry relative="1" as="geometry" />
        </mxCell>
        <mxCell id="J54ocUBtTwpgo4Hj2ubW-32" value="Управление" style="rounded=1;whiteSpace=wrap;html=1;fillColor=#d5e8d4;strokeColor=#82b366;" vertex="1" parent="1">
          <mxGeometry x="732" y="376" width="120" height="60" as="geometry" />
        </mxCell>
        <mxCell id="J54ocUBtTwpgo4Hj2ubW-39" style="edgeStyle=orthogonalEdgeStyle;rounded=0;orthogonalLoop=1;jettySize=auto;html=1;fillColor=#d5e8d4;strokeColor=#82b366;" edge="1" parent="1" source="J54ocUBtTwpgo4Hj2ubW-34" target="J54ocUBtTwpgo4Hj2ubW-35">
          <mxGeometry relative="1" as="geometry" />
        </mxCell>
        <mxCell id="J54ocUBtTwpgo4Hj2ubW-41" style="edgeStyle=orthogonalEdgeStyle;rounded=0;orthogonalLoop=1;jettySize=auto;html=1;fillColor=#d5e8d4;strokeColor=#82b366;" edge="1" parent="1" source="J54ocUBtTwpgo4Hj2ubW-34" target="J54ocUBtTwpgo4Hj2ubW-40">
          <mxGeometry relative="1" as="geometry" />
        </mxCell>
        <mxCell id="J54ocUBtTwpgo4Hj2ubW-34" value="Выбор режима" style="rounded=1;whiteSpace=wrap;html=1;fillColor=#d5e8d4;strokeColor=#82b366;" vertex="1" parent="1">
          <mxGeometry x="732" y="279" width="120" height="60" as="geometry" />
        </mxCell>
        <mxCell id="J54ocUBtTwpgo4Hj2ubW-35" value="Ручное упраление" style="rounded=1;whiteSpace=wrap;html=1;fillColor=#d5e8d4;strokeColor=#82b366;" vertex="1" parent="1">
          <mxGeometry x="1158" y="190" width="120" height="60" as="geometry" />
        </mxCell>
        <mxCell id="J54ocUBtTwpgo4Hj2ubW-49" style="edgeStyle=orthogonalEdgeStyle;rounded=0;orthogonalLoop=1;jettySize=auto;html=1;entryX=0.5;entryY=1;entryDx=0;entryDy=0;fillColor=#d5e8d4;strokeColor=#82b366;" edge="1" parent="1" source="J54ocUBtTwpgo4Hj2ubW-40" target="J54ocUBtTwpgo4Hj2ubW-47">
          <mxGeometry relative="1" as="geometry" />
        </mxCell>
        <mxCell id="J54ocUBtTwpgo4Hj2ubW-50" style="edgeStyle=orthogonalEdgeStyle;rounded=0;orthogonalLoop=1;jettySize=auto;html=1;entryX=0.5;entryY=1;entryDx=0;entryDy=0;fillColor=#d5e8d4;strokeColor=#82b366;" edge="1" parent="1" source="J54ocUBtTwpgo4Hj2ubW-40" target="J54ocUBtTwpgo4Hj2ubW-48">
          <mxGeometry relative="1" as="geometry" />
        </mxCell>
        <mxCell id="J54ocUBtTwpgo4Hj2ubW-51" style="edgeStyle=orthogonalEdgeStyle;rounded=0;orthogonalLoop=1;jettySize=auto;html=1;entryX=0.5;entryY=1;entryDx=0;entryDy=0;fillColor=#d5e8d4;strokeColor=#82b366;" edge="1" parent="1" source="J54ocUBtTwpgo4Hj2ubW-40" target="J54ocUBtTwpgo4Hj2ubW-46">
          <mxGeometry relative="1" as="geometry" />
        </mxCell>
        <mxCell id="J54ocUBtTwpgo4Hj2ubW-40" value="Автоматический режим" style="rounded=1;whiteSpace=wrap;html=1;fillColor=#d5e8d4;strokeColor=#82b366;" vertex="1" parent="1">
          <mxGeometry x="884" y="190" width="120" height="60" as="geometry" />
        </mxCell>
        <mxCell id="J54ocUBtTwpgo4Hj2ubW-46" value="Влажная уборка" style="rounded=1;whiteSpace=wrap;html=1;fillColor=#d5e8d4;strokeColor=#A1B393;" vertex="1" parent="1">
          <mxGeometry x="1036" y="82" width="120" height="60" as="geometry" />
        </mxCell>
        <mxCell id="J54ocUBtTwpgo4Hj2ubW-47" value="Режим производительности" style="rounded=1;whiteSpace=wrap;html=1;fillColor=#d5e8d4;strokeColor=#A1B393;" vertex="1" parent="1">
          <mxGeometry x="732" y="79" width="120" height="60" as="geometry" />
        </mxCell>
        <mxCell id="J54ocUBtTwpgo4Hj2ubW-48" value="Тихий режим" style="rounded=1;whiteSpace=wrap;html=1;fillColor=#d5e8d4;strokeColor=#A1B393;" vertex="1" parent="1">
          <mxGeometry x="884" y="79" width="120" height="60" as="geometry" />
        </mxCell>
        <mxCell id="J54ocUBtTwpgo4Hj2ubW-58" style="edgeStyle=orthogonalEdgeStyle;rounded=0;orthogonalLoop=1;jettySize=auto;html=1;entryX=0.5;entryY=1;entryDx=0;entryDy=0;fillColor=#fff2cc;strokeColor=#d6b656;" edge="1" parent="1" source="J54ocUBtTwpgo4Hj2ubW-53" target="J54ocUBtTwpgo4Hj2ubW-57">
          <mxGeometry relative="1" as="geometry" />
        </mxCell>
        <mxCell id="J54ocUBtTwpgo4Hj2ubW-59" style="edgeStyle=orthogonalEdgeStyle;rounded=0;orthogonalLoop=1;jettySize=auto;html=1;fillColor=#fff2cc;strokeColor=#d6b656;" edge="1" parent="1" source="J54ocUBtTwpgo4Hj2ubW-53" target="J54ocUBtTwpgo4Hj2ubW-56">
          <mxGeometry relative="1" as="geometry">
            <mxPoint x="512" y="80" as="targetPoint" />
          </mxGeometry>
        </mxCell>
        <mxCell id="J54ocUBtTwpgo4Hj2ubW-60" style="edgeStyle=orthogonalEdgeStyle;rounded=0;orthogonalLoop=1;jettySize=auto;html=1;fillColor=#fff2cc;strokeColor=#d6b656;" edge="1" parent="1" source="J54ocUBtTwpgo4Hj2ubW-53" target="J54ocUBtTwpgo4Hj2ubW-55">
          <mxGeometry relative="1" as="geometry" />
        </mxCell>
        <mxCell id="J54ocUBtTwpgo4Hj2ubW-53" value="Настройки сети" style="rounded=1;whiteSpace=wrap;html=1;fillColor=#fff2cc;strokeColor=#d6b656;" vertex="1" parent="1">
          <mxGeometry x="440" y="190" width="120" height="60" as="geometry" />
        </mxCell>
        <mxCell id="J54ocUBtTwpgo4Hj2ubW-54" value="Расписание" style="rounded=1;whiteSpace=wrap;html=1;fillColor=#76608a;fontColor=#ffffff;strokeColor=#432D57;" vertex="1" parent="1">
          <mxGeometry x="339" y="279" width="120" height="60" as="geometry" />
        </mxCell>
        <mxCell id="J54ocUBtTwpgo4Hj2ubW-55" value="Добавить сеть" style="rounded=1;whiteSpace=wrap;html=1;fillColor=#fff2cc;strokeColor=#d6b656;" vertex="1" parent="1">
          <mxGeometry x="294" y="79" width="120" height="60" as="geometry" />
        </mxCell>
        <mxCell id="J54ocUBtTwpgo4Hj2ubW-56" value="Забыть сеть" style="rounded=1;whiteSpace=wrap;html=1;fillColor=#fff2cc;strokeColor=#d6b656;" vertex="1" parent="1">
          <mxGeometry x="440" y="79" width="120" height="60" as="geometry" />
        </mxCell>
        <mxCell id="J54ocUBtTwpgo4Hj2ubW-57" value="Изменить параметры" style="rounded=1;whiteSpace=wrap;html=1;fillColor=#fff2cc;strokeColor=#d6b656;" vertex="1" parent="1">
          <mxGeometry x="586" y="79" width="120" height="60" as="geometry" />
        </mxCell>
        <mxCell id="J54ocUBtTwpgo4Hj2ubW-69" style="edgeStyle=orthogonalEdgeStyle;rounded=0;orthogonalLoop=1;jettySize=auto;html=1;" edge="1" parent="1" source="J54ocUBtTwpgo4Hj2ubW-63" target="J54ocUBtTwpgo4Hj2ubW-64">
          <mxGeometry relative="1" as="geometry" />
        </mxCell>
        <mxCell id="J54ocUBtTwpgo4Hj2ubW-70" style="edgeStyle=orthogonalEdgeStyle;rounded=0;orthogonalLoop=1;jettySize=auto;html=1;" edge="1" parent="1" source="J54ocUBtTwpgo4Hj2ubW-63" target="J54ocUBtTwpgo4Hj2ubW-65">
          <mxGeometry relative="1" as="geometry" />
        </mxCell>
        <mxCell id="J54ocUBtTwpgo4Hj2ubW-72" style="edgeStyle=orthogonalEdgeStyle;rounded=0;orthogonalLoop=1;jettySize=auto;html=1;" edge="1" parent="1" source="J54ocUBtTwpgo4Hj2ubW-63" target="J54ocUBtTwpgo4Hj2ubW-66">
          <mxGeometry relative="1" as="geometry" />
        </mxCell>
        <mxCell id="J54ocUBtTwpgo4Hj2ubW-63" value="Обслуживание" style="rounded=1;whiteSpace=wrap;html=1;" vertex="1" parent="1">
          <mxGeometry x="435" y="989" width="120" height="60" as="geometry" />
        </mxCell>
        <mxCell id="J54ocUBtTwpgo4Hj2ubW-64" value="Уровень заряда батареи" style="rounded=1;whiteSpace=wrap;html=1;" vertex="1" parent="1">
          <mxGeometry x="307" y="1104" width="120" height="60" as="geometry" />
        </mxCell>
        <mxCell id="J54ocUBtTwpgo4Hj2ubW-65" value="Уровень мусора в контейнере" style="rounded=1;whiteSpace=wrap;html=1;" vertex="1" parent="1">
          <mxGeometry x="435" y="1104" width="120" height="60" as="geometry" />
        </mxCell>
        <mxCell id="J54ocUBtTwpgo4Hj2ubW-66" value="Уровень воды" style="rounded=1;whiteSpace=wrap;html=1;" vertex="1" parent="1">
          <mxGeometry x="179" y="1104" width="120" height="60" as="geometry" />
        </mxCell>
        <mxCell id="J54ocUBtTwpgo4Hj2ubW-73" value="Уведомления" style="rounded=1;whiteSpace=wrap;html=1;fillColor=#76608a;fontColor=#ffffff;strokeColor=#432D57;" vertex="1" parent="1">
          <mxGeometry x="192" y="279" width="120" height="60" as="geometry" />
        </mxCell>
        <mxCell id="J54ocUBtTwpgo4Hj2ubW-92" style="edgeStyle=orthogonalEdgeStyle;rounded=0;orthogonalLoop=1;jettySize=auto;html=1;" edge="1" parent="1" source="J54ocUBtTwpgo4Hj2ubW-79" target="J54ocUBtTwpgo4Hj2ubW-63">
          <mxGeometry relative="1" as="geometry" />
        </mxCell>
        <mxCell id="J54ocUBtTwpgo4Hj2ubW-79" value="Диагностика" style="rounded=1;whiteSpace=wrap;html=1;" vertex="1" parent="1">
          <mxGeometry x="619" y="989" width="120" height="60" as="geometry" />
        </mxCell>
        <mxCell id="J54ocUBtTwpgo4Hj2ubW-80" value="Начать уборку" style="rounded=1;whiteSpace=wrap;html=1;" vertex="1" parent="1">
          <mxGeometry x="782" y="989" width="120" height="60" as="geometry" />
        </mxCell>
        <mxCell id="J54ocUBtTwpgo4Hj2ubW-84" value="Остановить уборку" style="rounded=1;whiteSpace=wrap;html=1;" vertex="1" parent="1">
          <mxGeometry x="935" y="989" width="120" height="60" as="geometry" />
        </mxCell>
        <mxCell id="J54ocUBtTwpgo4Hj2ubW-85" value="Вернуться на станцию" style="rounded=1;whiteSpace=wrap;html=1;" vertex="1" parent="1">
          <mxGeometry x="1070" y="989" width="120" height="60" as="geometry" />
        </mxCell>
        <mxCell id="J54ocUBtTwpgo4Hj2ubW-86" value="Отправить уведомление" style="rounded=1;whiteSpace=wrap;html=1;" vertex="1" parent="1">
          <mxGeometry x="935" y="621" width="120" height="60" as="geometry" />
        </mxCell>
        <mxCell id="J54ocUBtTwpgo4Hj2ubW-88" value="Помощь и поддержка" style="rounded=1;whiteSpace=wrap;html=1;fillColor=#76608a;fontColor=#ffffff;strokeColor=#432D57;" vertex="1" parent="1">
          <mxGeometry x="52" y="279" width="120" height="60" as="geometry" />
        </mxCell>
      </root>
    </mxGraphModel>
  </diagram>
</mxfile>
